<svg preserveAspectRatio="none" width="100%" height="100%" overflow="visible" style="display: block;" viewBox="0 0 30 30" fill="none" xmlns="http://www.w3.org/2000/svg">
<g id="Group">
<g id="Vector">
</g>
<path id="Vector_2" d="M15 25C9.4875 25 5 20.5125 5 15C5 9.4875 9.4875 5 15 5C20.5125 5 25 9.4875 25 15C25 20.5125 20.5125 25 15 25ZM15 27.5C21.9 27.5 27.5 21.9 27.5 15C27.5 8.1 21.9 2.5 15 2.5C8.1 2.5 2.5 8.1 2.5 15C2.5 21.9 8.1 27.5 15 27.5ZM13.75 15V20H16.25V15H20L15 10L10 15H13.75Z" fill="var(--fill-0, #68C28C)"/>
</g>
</svg>
